<?xml version="1.0" encoding="UTF-8"?>
<svg id="Capa_1" xmlns="http://www.w3.org/2000/svg" version="1.1" xmlns:xlink="http://www.w3.org/1999/xlink" viewBox="0 0 1080 1080">
  <!-- Generator: Adobe Illustrator 30.3.0, SVG Export Plug-In . SVG Version: 2.1.3 Build 182)  -->
  <defs>
    <style>
      .st0 {
        fill: #fff;
      }

      .st1 {
        fill: url(#Degradado_sin_nombre_121);
      }

      .st2 {
        fill: url(#Degradado_sin_nombre_12);
      }
    </style>
    <linearGradient id="Degradado_sin_nombre_12" data-name="Degradado sin nombre 12" x1="165.8" y1="416.93" x2="175.56" y2="714.25" gradientUnits="userSpaceOnUse">
      <stop offset="0" stop-color="#ff8421"/>
      <stop offset=".18" stop-color="#f56121"/>
      <stop offset=".44" stop-color="#ea3721"/>
      <stop offset=".67" stop-color="#e21921"/>
      <stop offset=".86" stop-color="#dd0621"/>
      <stop offset="1" stop-color="#dc0022"/>
    </linearGradient>
    <linearGradient id="Degradado_sin_nombre_121" data-name="Degradado sin nombre 12" x1="254.53" y1="398.17" x2="264.8" y2="711" xlink:href="#Degradado_sin_nombre_12"/>
  </defs>
  <path class="st2" d="M210.31,561.31c-41.96-78.99-32.59-98.45-28.8-120.06.35-2.02-2.33-3.17-3.64-1.56-23.17,28.64-26.45,43.1-27.72,64.95-.96,16.6,2.17,33.14,8.1,48.75,5.32,14.01,13.01,39.57,3.2,50.15-23.34,25.16-46.15-20.53-54.68-40.8-.83-1.98-3.88-1.44-3.96.7-3.2,95.65,27.36,128.64,56.04,138.8,28.82,10.21,62.45-.89,77.67-26.71,16.82-28.52-7.57-79.11-26.21-114.21Z"/>
  <path class="st1" d="M215.66,358.97c-.1-2.31-2.99-3.62-4.28-1.73-15.77,23.18-36.51,114.22,12.78,192.67,70.43,112.09,20.9,150.75-19.95,167.89-2.75,1.15-1.36,5.59,1.59,5.72,24.69,1.1,102.71-2.45,117.7-74.01,5.63-26.87-5.83-59.18-19.31-82.95-28.91-50.96-82.97-74.55-88.52-207.59Z"/>
  <path class="st0" d="M384.61,657.67c1.72-7.02,2.58-16.49,2.58-28.48v-38.02c0-11.99-.86-21.46-2.58-28.48h77.83l4.11,27.56c-1.66-1.13-3.91-1.99-6.89-2.45s-7.42-.66-13.18-.66h-34.44v16.82h27.22c7.35,0,12.45-.2,15.37-.66v16.69c-3.78-.6-8.94-.86-15.37-.86h-27.22v10.33c0,11.72.79,21.13,2.38,28.22h-29.81Z"/>
  <path class="st0" d="M467.33,610.18c0-15.43,5.56-28.42,14.64-36.63,9.01-8.15,21.46-12.72,35.44-12.72s26.5,4.57,35.57,12.72c9.07,8.21,14.64,21.2,14.64,36.63s-5.56,28.48-14.64,36.7c-9.07,8.21-21.53,12.72-35.57,12.72-27.75.07-50.14-17.69-50.08-49.41ZM535.1,631.84c4.57-5.37,6.89-12.59,6.89-21.66s-2.32-16.3-6.89-21.66c-4.64-5.37-10.53-8.02-17.69-8.02s-12.92,2.65-17.49,8.02c-4.57,5.37-6.89,12.59-6.89,21.66s2.32,16.3,6.89,21.66c4.57,5.37,10.4,8.08,17.49,8.08s13.05-2.72,17.69-8.08Z"/>
  <path class="st0" d="M739.51,562.68c.6,2.99,1.19,7.22,1.72,12.72.47,5.49.73,10.72.73,15.63v30h-1.8l-41.33-58.22-27.16-.14c1.73,7.03,2.59,16.5,2.59,28.48v28.88c-2.85,6.82-12.12,10.73-19.53,10.73-5.5,0-8.22-4.44-11.92-8.88-1.4-1.52-2.72-2.98-4.11-4.3-2.71-2.59-7.36-4.57-12.85-4.57h-.26v-.8h1.72c19.28.26,34.58-10.07,34.38-25.23.07-15.37-15.49-24.58-35.04-24.32h-53.98c1.52,6.83,2.31,16.36,2.31,28.48v38.03c0,11.99-.79,21.52-2.31,28.48h29.74c-1.66-6.82-2.45-16.3-2.45-28.48v-10.2c.98-.54,3.97-.8,8.94-.8,12.92,0,17.49,8.15,21.07,17.36,4.37,11.33,8.02,22.12,25.24,22.12h46.29c-.6-3.11-1.19-7.62-1.66-13.51-.46-5.89-.72-11.45-.72-16.63v-29.94h1.72l42.59,60.08h23.52v-66.51c0-11.92.79-21.39,2.38-28.48h-29.8ZM621.21,606.27h-21.26v-19.93h22.38c4.11,0,7.48.93,10.14,2.78,2.64,1.85,3.97,4.23,3.97,7.08,0,6.17-6.03,10.07-15.23,10.07Z"/>
  <path class="st0" d="M776.46,657.67c1.72-7.02,2.58-16.49,2.58-28.48v-38.02c0-11.99-.86-21.46-2.58-28.48l27.16.13,41.33,58.22h1.79v-30.01c0-4.9-.26-10.13-.73-15.63-.53-5.5-1.13-9.74-1.72-12.72h29.81c-1.59,7.09-2.38,16.56-2.38,28.48v66.5h-23.52l-42.59-60.08h-1.72v29.94c0,5.17.26,10.73.73,16.63.46,5.9,1.06,10.4,1.66,13.51h-29.81Z"/>
  <path class="st0" d="M877.14,610.18c0-15.43,5.56-28.42,14.64-36.63,9.01-8.15,21.46-12.72,35.44-12.72s26.5,4.57,35.57,12.72c9.07,8.21,14.64,21.2,14.64,36.63s-5.56,28.48-14.64,36.7c-9.07,8.21-21.53,12.72-35.57,12.72-27.75.07-50.14-17.69-50.08-49.41ZM944.9,631.84c4.57-5.37,6.89-12.59,6.89-21.66s-2.32-16.3-6.89-21.66c-4.64-5.37-10.53-8.02-17.69-8.02s-12.92,2.65-17.49,8.02-6.89,12.59-6.89,21.66,2.32,16.3,6.89,21.66,10.4,8.08,17.49,8.08,13.05-2.72,17.69-8.08Z"/>
</svg>