<?xml version="1.0" encoding="UTF-8"?>
<svg id="Capa_1" xmlns="http://www.w3.org/2000/svg" version="1.1" viewBox="0 0 1080 1080">
  <!-- Generator: Adobe Illustrator 30.3.0, SVG Export Plug-In . SVG Version: 2.1.3 Build 182)  -->
  <defs>
    <style>
      .st0 {
        fill: #fff;
      }
    </style>
  </defs>
  <path class="st0" d="M126.16,606.26c2.4-9.8,3.61-23.03,3.61-39.77v-53.09c0-16.74-1.2-29.96-3.61-39.77h108.67l5.73,38.47c-2.31-1.57-5.46-2.77-9.62-3.42-4.16-.65-10.36-.92-18.4-.92h-48.09v23.49h38.01c10.27,0,17.39-.28,21.46-.92v23.31c-5.27-.83-12.49-1.2-21.46-1.2h-38.01v14.43c0,16.37,1.11,29.5,3.33,39.4h-41.62Z"/>
  <path class="st0" d="M241.66,539.95c0-21.55,7.77-39.68,20.44-51.14,12.58-11.38,29.96-17.76,49.48-17.76s36.99,6.38,49.66,17.76c12.67,11.47,20.44,29.59,20.44,51.14s-7.77,39.77-20.44,51.24c-12.67,11.47-30.06,17.76-49.66,17.76-38.75.09-70.01-24.69-69.92-68.99ZM336.27,570.2c6.38-7.49,9.62-17.57,9.62-30.24s-3.24-22.75-9.62-30.24c-6.47-7.49-14.7-11.19-24.69-11.19s-18.03,3.7-24.42,11.19c-6.38,7.49-9.62,17.57-9.62,30.24s3.24,22.75,9.62,30.24c6.38,7.49,14.52,11.28,24.42,11.28s18.22-3.79,24.69-11.28Z"/>
  <path class="st0" d="M621.67,473.64c.83,4.17,1.66,10.08,2.4,17.77.65,7.67,1.02,14.97,1.02,21.82v41.89h-2.51l-57.71-81.29-37.91-.19c2.41,9.81,3.61,23.04,3.61,39.77v40.33c-3.98,9.52-16.92,14.99-27.27,14.99-7.68,0-11.47-6.2-16.65-12.4-1.95-2.12-3.8-4.15-5.74-6.01-3.79-3.61-10.27-6.37-17.94-6.37h-.37v-1.12h2.4c26.92.37,48.28-14.06,48-35.23.1-21.46-21.63-34.32-48.92-33.95h-75.36c2.12,9.54,3.23,22.85,3.23,39.77v53.09c0,16.74-1.1,30.05-3.23,39.77h41.52c-2.32-9.52-3.42-22.75-3.42-39.77v-14.24c1.37-.75,5.54-1.12,12.48-1.12,18.04,0,24.41,11.38,29.41,24.24,6.1,15.82,11.2,30.88,35.25,30.88h64.63c-.83-4.35-1.66-10.64-2.32-18.87-.64-8.23-1.01-15.99-1.01-23.21v-41.8h2.4l59.47,83.88h32.83v-92.86c0-16.65,1.1-29.86,3.32-39.77h-41.6ZM456.5,534.49h-29.69v-27.83h31.25c5.74,0,10.45,1.29,14.16,3.88,3.69,2.59,5.54,5.91,5.54,9.89,0,8.61-8.42,14.06-21.27,14.06Z"/>
  <path class="st0" d="M673.26,606.26c2.4-9.8,3.61-23.03,3.61-39.77v-53.09c0-16.74-1.2-29.96-3.61-39.77l37.92.18,57.71,81.29h2.5v-41.9c0-6.84-.37-14.15-1.02-21.83-.74-7.68-1.57-13.6-2.4-17.76h41.62c-2.22,9.9-3.33,23.12-3.33,39.77v92.85h-32.83l-59.47-83.88h-2.4v41.8c0,7.21.37,14.98,1.02,23.21.65,8.23,1.48,14.52,2.31,18.87h-41.62Z"/>
  <path class="st0" d="M813.82,539.95c0-21.55,7.77-39.68,20.44-51.14,12.58-11.38,29.96-17.76,49.48-17.76s36.99,6.38,49.66,17.76c12.67,11.47,20.44,29.59,20.44,51.14s-7.77,39.77-20.44,51.24c-12.67,11.47-30.06,17.76-49.66,17.76-38.75.09-70.01-24.69-69.92-68.99ZM908.44,570.2c6.38-7.49,9.62-17.57,9.62-30.24s-3.24-22.75-9.62-30.24c-6.47-7.49-14.7-11.19-24.69-11.19s-18.03,3.7-24.42,11.19c-6.38,7.49-9.62,17.57-9.62,30.24s3.24,22.75,9.62,30.24,14.52,11.28,24.42,11.28,18.22-3.79,24.69-11.28Z"/>
</svg>